<?xml version="1.0" encoding="UTF-8"?>
<svg id="Layer_1" data-name="Layer 1" xmlns="http://www.w3.org/2000/svg" viewBox="0 0 476 143.95">
  <defs>
    <style>
      .cls-1 {
        fill: #231f20;
      }

      .cls-1, .cls-2 {
        stroke-width: 0px;
      }

      .cls-2 {
        fill: #e12228;
      }
    </style>
  </defs>
  <g>
    <polygon class="cls-2" points="13.02 58.59 42.67 63.23 42.67 58.87 13.68 54.33 13.02 58.59"/>
    <polygon class="cls-2" points="3.3 46.94 8.49 13.74 19.76 15.51 14.57 48.7 42.67 53.1 42.67 0 0 0 0 46.42 3.3 46.94"/>
    <path class="cls-2" d="M10.33,75.79l-1.55,9.88c4.98,4.76,17.64,16.08,33.89,24.56v-11.86c-14.24-7.26-25.89-16.76-32.34-22.58"/>
    <path class="cls-2" d="M42.67,95.78v-26.78l-30.54-4.78-1.38,8.84c5.91,5.44,17.51,15.19,31.92,22.71"/>
    <path class="cls-2" d="M8.35,88.42L0,141.77v.86h42.67v-29.82c-15.84-8.07-28.48-18.93-34.32-24.39"/>
  </g>
  <g>
    <g>
      <path class="cls-1" d="M141.87,0c1.71,0,2.56.82,2.56,2.45v10.58c0,1.63-.86,2.45-2.56,2.45h-48.65c-2.9,0-5.29.24-7.18.72-1.89.48-3.42,1.3-4.57,2.45-1.15,1.15-1.95,2.71-2.39,4.67-.44,1.97-.67,4.4-.67,7.3v1.11h62.91c1.63,0,2.45.82,2.45,2.45v8.8c0,1.63-.82,2.45-2.45,2.45h-62.91v1.89c0,2.9.23,5.33.67,7.29.45,1.97,1.24,3.53,2.39,4.67,1.15,1.15,2.67,1.97,4.57,2.45,1.89.48,4.29.72,7.18.72h48.65c1.71,0,2.56.81,2.56,2.45v10.58c0,1.63-.86,2.45-2.56,2.45h-48.99c-5.65,0-10.43-.52-14.36-1.56-3.94-1.04-7.15-2.73-9.63-5.07-2.49-2.34-4.31-5.38-5.45-9.13-1.15-3.74-1.73-8.29-1.73-13.64v-19.15c0-5.35.58-9.87,1.73-13.59,1.15-3.71,2.97-6.73,5.45-9.07,2.49-2.34,5.7-4.05,9.63-5.12,3.93-1.07,8.72-1.62,14.36-1.62h48.99Z"/>
      <path class="cls-1" d="M188.19,0c1.78,0,3.27.08,4.45.22,1.19.15,2.23.46,3.12.95.89.48,1.74,1.15,2.56,2,.81.85,1.74,1.99,2.78,3.39l41.42,54.33c.29.52.78.78,1.45.78h1c.59,0,.89-.37.89-1.11V2.45c0-1.63.81-2.45,2.45-2.45h11.69c1.63,0,2.45.82,2.45,2.45v63.91c0,4.53-.82,7.59-2.45,9.19-1.63,1.6-4.16,2.4-7.57,2.4h-9.57c-1.71,0-3.13-.07-4.29-.22-1.15-.15-2.17-.45-3.06-.89-.89-.45-1.77-1.1-2.61-1.95-.86-.85-1.84-2.02-2.95-3.51l-41.53-54.33c-.44-.52-.93-.78-1.45-.78h-1c-.6,0-.89.37-.89,1.11v58.12c0,1.63-.82,2.45-2.45,2.45h-11.69c-1.71,0-2.56-.82-2.56-2.45V11.58c0-4.53.82-7.59,2.45-9.19,1.63-1.6,4.16-2.39,7.57-2.39h9.8Z"/>
      <path class="cls-1" d="M367.67,0c1.71,0,2.56.82,2.56,2.45v10.58c0,1.63-.86,2.45-2.56,2.45h-48.65c-2.9,0-5.29.24-7.18.72-1.89.48-3.42,1.3-4.57,2.45-1.15,1.15-1.95,2.71-2.39,4.67-.44,1.97-.67,4.4-.67,7.3v1.11h62.91c1.63,0,2.45.82,2.45,2.45v8.8c0,1.63-.82,2.45-2.45,2.45h-62.91v1.89c0,2.9.22,5.33.67,7.29.45,1.97,1.24,3.53,2.39,4.67,1.15,1.15,2.67,1.97,4.57,2.45,1.89.48,4.29.72,7.18.72h48.65c1.71,0,2.56.81,2.56,2.45v10.58c0,1.63-.86,2.45-2.56,2.45h-48.99c-5.65,0-10.43-.52-14.36-1.56-3.94-1.04-7.15-2.73-9.63-5.07-2.49-2.34-4.31-5.38-5.45-9.13-1.15-3.74-1.73-8.29-1.73-13.64v-19.15c0-5.35.58-9.87,1.73-13.59,1.15-3.71,2.97-6.73,5.45-9.07,2.49-2.34,5.7-4.05,9.63-5.12,3.93-1.07,8.72-1.62,14.36-1.62h48.99Z"/>
      <path class="cls-1" d="M473.44,0c1.71,0,2.56.82,2.56,2.45v10.58c0,1.63-.86,2.45-2.56,2.45h-48.65c-2.9,0-5.29.24-7.18.72-1.89.48-3.42,1.3-4.57,2.45-1.15,1.15-1.95,2.71-2.39,4.67-.44,1.97-.67,4.4-.67,7.3v1.11h62.91c1.63,0,2.45.82,2.45,2.45v8.8c0,1.63-.82,2.45-2.45,2.45h-62.91v1.89c0,2.9.22,5.33.67,7.29.45,1.97,1.24,3.53,2.39,4.67,1.15,1.15,2.67,1.97,4.57,2.45,1.89.48,4.29.72,7.18.72h48.65c1.71,0,2.56.81,2.56,2.45v10.58c0,1.63-.86,2.45-2.56,2.45h-48.99c-5.65,0-10.43-.52-14.36-1.56-3.94-1.04-7.15-2.73-9.63-5.07-2.49-2.34-4.31-5.38-5.45-9.13-1.15-3.74-1.73-8.29-1.73-13.64v-19.15c0-5.35.58-9.87,1.73-13.59,1.15-3.71,2.97-6.73,5.45-9.07,2.49-2.34,5.7-4.05,9.63-5.12,3.93-1.07,8.72-1.62,14.36-1.62h48.99Z"/>
    </g>
    <g>
      <path class="cls-2" d="M61.71,100.87h18.93c12.48.06,21.79,7.45,21.79,21.17s-9.31,21.05-21.79,21.05h-18.93v-42.22ZM72.14,109.93v24.09h8.07c6.83,0,11.48-4.28,11.48-11.98s-4.66-12.11-11.48-12.11h-8.07Z"/>
      <path class="cls-2" d="M115.1,96.77c3.35,0,5.59,1.24,5.59,4.72s-2.23,4.72-5.59,4.72-5.71-1.24-5.71-4.72,2.3-4.72,5.71-4.72ZM120.26,131.97c0,1.61.31,2.98,1.99,2.98,1.3,0,2.86-.68,3.04-.87l.43,8.26c-.25.25-3.85,1.37-7.76,1.37-5.15,0-8.13-2.61-8.13-9.19v-23.9h10.43v21.36Z"/>
      <path class="cls-2" d="M154.77,120.73c-3.04-1.61-6.64-2.61-9.68-2.61-2.11,0-3.91.62-3.91,2.17,0,1.24.81,1.68,2.67,2.17l5.77,1.55c5.9,1.61,7.76,4.78,7.76,9.19,0,6.27-4.97,10.49-13.53,10.49-5.71,0-10.3-1.55-12.79-2.79l1.92-8.13c2.98,1.55,6.83,3.04,10.12,3.04,2.42,0,3.85-.5,3.85-1.92,0-1.06-1.24-1.61-3.29-2.17l-5.15-1.43c-5.28-1.55-7.88-4.47-7.88-9.37,0-6.46,5.65-10.86,14.71-10.86,4.28,0,9.56,1.18,12.11,2.36l-2.67,8.32Z"/>
      <path class="cls-2" d="M178.06,102.36v8.26h11.24v8.07h-11.24v11.3c0,3.29,1.37,4.66,3.85,4.66,2.24,0,4.59-1.12,6.08-2.17l3.17,7.95c-3.23,1.99-7.51,3.29-12.6,3.29-6.77,0-10.93-4.1-10.93-11.92v-13.1h-5.53v-8.07h5.84l1.3-8.26h8.82Z"/>
      <path class="cls-2" d="M200.04,121.79c0-1.68-.31-2.98-1.99-2.98-1.3,0-2.86.62-3.17.81l-.31-8.19c.25-.31,3.85-1.37,7.7-1.37s6.46,1.43,7.57,4.78c1.55-2.92,3.79-4.78,7.88-4.78,3.04,0,5.53,1.12,5.77,1.55l-1.3,9.5c-.31-.43-3.1-1.43-6.21-1.43-3.85,0-5.22,3.1-5.53,6.46v16.95h-10.43v-21.29Z"/>
      <path class="cls-2" d="M234.49,96.77c3.35,0,5.59,1.24,5.59,4.72s-2.23,4.72-5.59,4.72-5.71-1.24-5.71-4.72,2.3-4.72,5.71-4.72ZM239.64,131.97c0,1.61.31,2.98,1.99,2.98,1.3,0,2.86-.68,3.04-.87l.43,8.26c-.25.25-3.85,1.37-7.76,1.37-5.15,0-8.13-2.61-8.13-9.19v-23.9h10.43v21.36Z"/>
      <path class="cls-2" d="M271.56,143.7c-4.22,0-7.2-1.43-9.25-3.6v2.98h-10.43v-44.08h10.43v14.46c2.17-1.99,5.34-3.41,9.25-3.41,8.94,0,15.02,6.95,15.02,16.76s-6.08,16.89-15.02,16.89ZM268.58,119.12c-2.36,0-4.66.99-6.27,2.42v10.74c1.37,1.24,3.79,2.36,6.27,2.36,4.47,0,7.39-3.04,7.39-7.82s-2.92-7.7-7.39-7.7Z"/>
      <path class="cls-2" d="M326,110.61v21.36c0,1.61.31,2.98,1.86,2.98,1.06,0,2.11-.37,3.17-.87l.37,8.26c-1.61.74-4.66,1.37-7.76,1.37-3.54,0-6.08-1.24-7.26-4.22-2.42,2.73-6.15,4.22-10.68,4.22-8.38,0-11.92-6.02-11.92-14.34v-18.75h10.43v17.26c0,4.28,1.24,6.33,5.46,6.33,2.98,0,4.9-1.61,5.9-3.17v-20.42h10.43Z"/>
      <path class="cls-2" d="M367.79,139.48c-3.48,2.73-8.44,4.47-13.91,4.47-12.23,0-17.75-7.26-17.75-17.01s6.83-17.2,17.2-17.2c9.62,0,14.59,5.28,14.9,12.91l-9.25,2.05c-.25-3.6-1.68-5.84-5.59-5.84s-6.52,3.29-6.52,7.76,2.48,8.19,8.26,8.19c2.98,0,6.58-1.68,8.69-3.41l3.97,8.07Z"/>
      <path class="cls-2" d="M380.58,96.77c3.35,0,5.59,1.24,5.59,4.72s-2.23,4.72-5.59,4.72-5.71-1.24-5.71-4.72,2.3-4.72,5.71-4.72ZM385.73,131.97c0,1.61.31,2.98,1.99,2.98,1.3,0,2.86-.68,3.04-.87l.43,8.26c-.25.25-3.85,1.37-7.76,1.37-5.15,0-8.13-2.61-8.13-9.19v-23.9h10.43v21.36Z"/>
      <path class="cls-2" d="M413.3,109.74c10.18,0,17.57,7.33,17.57,17.2s-7.39,17.01-17.57,17.01-17.45-7.26-17.45-17.01,7.39-17.2,17.45-17.2ZM413.3,134.51c4.53,0,7.51-3.41,7.51-7.57s-2.98-7.7-7.51-7.7-7.39,3.41-7.39,7.7,2.98,7.57,7.39,7.57ZM417.27,106.89h-8.63l5.03-9.81h10.24l-6.64,9.81Z"/>
      <path class="cls-2" d="M448.75,110.61v3.6c2.36-2.48,5.71-4.16,9.87-4.16,8.38,0,11.92,6.39,11.92,14.34v7.57c0,1.61.37,2.98,1.99,2.98.99,0,2.11-.37,3.17-.87l.31,8.26c-1.74.74-4.53,1.37-7.7,1.37-5.21,0-8.19-2.55-8.19-9.19v-8.38c0-4.16-1.92-6.46-5.46-6.46-2.92,0-4.97,2.17-5.9,4.04v19.37h-10.43v-32.47h10.43Z"/>
    </g>
  </g>
</svg>